<svg width="32" height="32" viewBox="0 0 32 32" fill="none" xmlns="http://www.w3.org/2000/svg">
<circle cx="16" cy="16" r="15.5" fill="white" stroke="#061C05"/>
<path d="M24.8889 25.2445V23.1111C24.8889 21.9796 24.4394 20.8943 23.6393 20.0942C22.8391 19.294 21.7539 18.8445 20.6223 18.8445H12.0889C10.9573 18.8445 9.8721 19.294 9.07194 20.0942C8.27179 20.8943 7.82227 21.9796 7.82227 23.1111V25.2445" stroke="#061C05" stroke-width="2" stroke-linecap="round" stroke-linejoin="round"/>
<path d="M16.3555 14.5778C18.7119 14.5778 20.6222 12.6675 20.6222 10.3111C20.6222 7.95469 18.7119 6.04443 16.3555 6.04443C13.9991 6.04443 12.0889 7.95469 12.0889 10.3111C12.0889 12.6675 13.9991 14.5778 16.3555 14.5778Z" stroke="#061C05" stroke-width="2" stroke-linecap="round" stroke-linejoin="round"/>
</svg>
