<svg id="SideMenu" xmlns="http://www.w3.org/2000/svg" width="20" height="18" viewBox="0 0 20 18">
  <path id="Path_3729" data-name="Path 3729" d="M291.853,257.831q4.369,0,8.737,0a1.109,1.109,0,0,1,1.252.949,1.1,1.1,0,0,1-1.195,1.277c-2.28.009-4.56.005-6.838.005q-5.345,0-10.692,0a1.112,1.112,0,0,1-1.258-1c-.063-.733.433-1.226,1.256-1.227q3.581,0,7.164,0h1.574Z" transform="translate(-281.855 -249.948)"/>
  <path id="Path_3730" data-name="Path 3730" d="M290.747,249.95h7.426c.09,0,.181,0,.271,0a1.142,1.142,0,0,1,1.172,1.115,1.114,1.114,0,0,1-1.15,1.133c-1.047.025-2.1.01-3.144.01H283.289c-.09,0-.181,0-.271,0a1.128,1.128,0,1,1,.032-2.253C285.615,249.945,288.181,249.95,290.747,249.95Z" transform="translate(-281.855 -249.948)"/>
  <path id="Path_3731" data-name="Path 3731" d="M290.273,267.945q-3.567,0-7.134,0a1.135,1.135,0,1,1-.016-2.253c1.756-.012,3.512-.006,5.268-.007h8.671c.164,0,.33-.005.493.007a1.115,1.115,0,0,1,1.143,1.146,1.1,1.1,0,0,1-1.181,1.1c-1.72.012-3.439.006-5.159.006h-2.085Z" transform="translate(-281.855 -249.948)"/>
</svg>
